# xmcd CD database file
#
# Track frame offsets:
#	150
#	14137
#	29757
#	45117
#	54577
#	66564
#	81492
#	95812
#	108464
#	121266
#	136326
#	148284
#	161364
#	176569
#	189779
#	204594
#
# Disc length: 2897 seconds
#
# Revision: 0
# Processed by: cddbd v1.5PL3 Copyright (c) Steve Scherf et al.
# Submitted via: CDex 1.50
#
DISCID=ec0b4f10
DTITLE=Various Artist - 本物の魅力VOCAL Woman　disk-1
DYEAR=1900
DGENRE=Jazz
TTITLE0=テネシーワルツ/バディページ
TTITLE1=イッツマジック/ドリスデイ
TTITLE2=いつかどこかで/ペギーリー
TTITLE3=ボタンとリボン/ダイナショア
TTITLE4=ロッキンチェア/ミルドレッドベイリー
TTITLE5=ラヴァーマン/ビリ−ホリデイ
TTITLE6=アイウォントトゥクライ/ダイナワシントン
TTITLE7=縁は異なもの/サラヴォーン
TTITLE8=虹の彼方に/ジュディガーランド
TTITLE9=ブロウトップブル−ス/ダイナワシントン
TTITLE10=シューフライパイ/ジューンクリスティ
TTITLE11=ビア樽ポルカ/アンドリュースシスターズ
TTITLE12=ストーミーウエザー/リナホーン
TTITLE13=帰ってきてくれたら嬉しいわ/ダイナショア
TTITLE14=ハウハイザムーン/エラフィッツジェラルド
TTITLE15=アゲイン/ドリスデイ
EXTD=
EXTT0=
EXTT1=
EXTT2=
EXTT3=
EXTT4=
EXTT5=
EXTT6=
EXTT7=
EXTT8=
EXTT9=
EXTT10=
EXTT11=
EXTT12=
EXTT13=
EXTT14=
EXTT15=
PLAYORDER=
